HIERARCHY
ROOT Hips
{
	OFFSET 0.00000 0.00000 0.00000
	CHANNELS 6 Xposition Yposition Zposition Zrotation Yrotation Xrotation 
	JOINT LHipJoint
	{
		OFFSET 0 0 0
		CHANNELS 3 Zrotation Yrotation Xrotation
		JOINT LeftUpLeg
		{
			OFFSET 1.44361 -1.63093 0.70831
			CHANNELS 3 Zrotation Yrotation Xrotation
			JOINT LeftLeg
			{
				OFFSET 2.20103 -6.04728 0.00000
				CHANNELS 3 Zrotation Yrotation Xrotation
				JOINT LeftFoot
				{
					OFFSET 2.54154 -6.98283 0.00000
					CHANNELS 3 Zrotation Yrotation Xrotation
					JOINT LeftToeBase
					{
						OFFSET 0.05971 -0.16406 1.77582
						CHANNELS 3 Zrotation Yrotation Xrotation
						End Site
						{
							OFFSET 0.00000 -0.00000 0.90832
						}
					}
				}
			}
		}
	}
	JOINT RHipJoint
	{
		OFFSET 0 0 0
		CHANNELS 3 Zrotation Yrotation Xrotation
		JOINT RightUpLeg
		{
			OFFSET -1.65838 -1.63093 0.70830
			CHANNELS 3 Zrotation Yrotation Xrotation
			JOINT RightLeg
			{
				OFFSET -2.26926 -6.23475 0.00000
				CHANNELS 3 Zrotation Yrotation Xrotation
				JOINT RightFoot
				{
					OFFSET -2.34808 -6.45129 0.00000
					CHANNELS 3 Zrotation Yrotation Xrotation
					JOINT RightToeBase
					{
						OFFSET -0.18633 -0.51195 1.68539
						CHANNELS 3 Zrotation Yrotation Xrotation
						End Site
						{
							OFFSET -0.00000 -0.00000 0.88927
						}
					}
				}
			}
		}
	}
	JOINT LowerBack
	{
		OFFSET 0 0 0
		CHANNELS 3 Zrotation Yrotation Xrotation
		JOINT Spine
		{
			OFFSET -0.10393 2.01691 0.06920
			CHANNELS 3 Zrotation Yrotation Xrotation
			JOINT Spine1
			{
				OFFSET 0.04092 2.01302 -0.05283
				CHANNELS 3 Zrotation Yrotation Xrotation
				JOINT Neck
				{
					OFFSET 0 0 0
					CHANNELS 3 Zrotation Yrotation Xrotation
					JOINT Neck1
					{
						OFFSET -0.02870 1.58978 -0.03113
						CHANNELS 3 Zrotation Yrotation Xrotation
						JOINT Head
						{
							OFFSET 0.11532 1.54326 -0.29195
							CHANNELS 3 Zrotation Yrotation Xrotation
							End Site
							{
								OFFSET 0.04056 1.59999 -0.09535
							}
						}
					}
				}
				JOINT LeftShoulder
				{
					OFFSET 0 0 0
					CHANNELS 3 Zrotation Yrotation Xrotation
					JOINT LeftArm
					{
						OFFSET 3.30641 1.15764 0.01104
						CHANNELS 3 Zrotation Yrotation Xrotation
						JOINT LeftForeArm
						{
							OFFSET 4.63208 -0.00000 0.00000
							CHANNELS 3 Zrotation Yrotation Xrotation
							JOINT LeftHand
							{
								OFFSET 3.41924 -0.00000 -0.00000
								CHANNELS 3 Zrotation Yrotation Xrotation
								JOINT LeftFingerBase
								{
									OFFSET 0 0 0
									CHANNELS 3 Zrotation Yrotation Xrotation
									JOINT LeftHandIndex1
									{
										OFFSET 0.62537 -0.00000 -0.00000
										CHANNELS 3 Zrotation Yrotation Xrotation
										End Site
										{
											OFFSET 0.50419 -0.00000 -0.00000
										}
									}
								}
								JOINT LThumb
								{
									OFFSET 0 0 0
									CHANNELS 3 Zrotation Yrotation Xrotation
									End Site
									{
										OFFSET 0.51189 -0.00000 0.51189
									}
								}
							}
						}
					}
				}
				JOINT RightShoulder
				{
					OFFSET 0 0 0
					CHANNELS 3 Zrotation Yrotation Xrotation
					JOINT RightArm
					{
						OFFSET -3.78081 1.02180 -0.16609
						CHANNELS 3 Zrotation Yrotation Xrotation
						JOINT RightForeArm
						{
							OFFSET -4.40640 -0.00000 -0.00000
							CHANNELS 3 Zrotation Yrotation Xrotation
							JOINT RightHand
							{
								OFFSET -3.44675 -0.00000 0.00000
								CHANNELS 3 Zrotation Yrotation Xrotation
								JOINT RightFingerBase
								{
									OFFSET 0 0 0
									CHANNELS 3 Zrotation Yrotation Xrotation
									JOINT RightHandIndex1
									{
										OFFSET -0.51367 -0.00000 -0.00000
										CHANNELS 3 Zrotation Yrotation Xrotation
										End Site
										{
											OFFSET -0.41414 -0.00000 -0.00000
										}
									}
								}
								JOINT RThumb
								{
									OFFSET 0 0 0
									CHANNELS 3 Zrotation Yrotation Xrotation
									End Site
									{
										OFFSET -0.42046 -0.00000 0.42046
									}
								}
							}
						}
					}
				}
			}
		}
	}
}
MOTION
Frames: 11
Frame Time: .0083333
8.4152 15.5209 13.5836 -171.8840 20.0263 -161.4500 0.0000 0.0000 0.0000 -7.1792 -9.1386 -49.6963 7.4252 15.6797 50.4646 1.0269 -1.5180 -18.7055 8.5734 -16.5252 -54.6026 0.0000 0.0000 0.0000 7.2861 11.9410 6.2145 -18.0075 -19.9045 84.1653 -48.2939 43.8246 158.5077 -0.1311 2.3342 -6.4301 -4.8818 6.7388 -1.2165 2.0359 9.1672 2.6917 5.0162 4.4875 2.3714 -2.7415 -3.9967 -7.9757 7.0746 -5.4146 21.8664 2.3759 -1.6463 8.3598 -0.0000 0.0000 0.0000 -33.2577 17.8876 40.0391 15.9499 -25.4527 -3.6244 -0.0000 -0.0000 2.4642 39.9886 -21.5263 -17.1065 -7.1250 0.0000 -0.0000 6.9203 2.9114 -6.6089 -0.0000 0.0000 0.0000 49.5041 12.9244 30.4730 -27.9248 39.0469 -10.0763 0.0000 -0.0000 -1.3936 -13.3995 -38.9868 8.5239 7.1250 -0.0000 -0.0000 29.8285 -67.4942 -16.7271
8.3691 15.4895 13.4276 -172.6670 18.0522 -162.4340 0.0000 0.0000 0.0000 -8.4760 -11.1877 -48.0157 7.3625 15.6297 50.2322 1.1272 -2.7663 -19.3376 8.4095 -16.4123 -54.0246 0.0000 0.0000 0.0000 7.9716 13.5881 5.7659 -15.4463 -19.4954 76.5773 -37.8363 24.2049 -150.5873 -0.4032 4.0766 -11.2923 -5.0003 6.1408 -1.0194 2.4651 8.3796 2.9282 5.5184 4.0872 2.5212 -3.0863 -4.2757 -7.5330 7.1763 -5.7076 22.2932 2.4551 -1.7708 8.4525 0.0000 -0.0000 0.0000 -34.1318 16.4698 40.8733 16.7567 -26.5359 -3.9780 -0.0000 -0.0000 2.3120 39.9776 -21.7188 -17.2372 -7.1250 0.0000 -0.0000 6.8738 2.6851 -6.5925 0.0000 -0.0000 0.0000 49.5637 9.8978 29.6323 -26.3635 37.5654 -9.1084 0.0000 -0.0000 -0.4942 -12.7815 -36.9182 7.7597 7.1250 -0.0000 -0.0000 27.7390 -65.5611 -14.2663
8.3153 15.4787 13.2902 -173.7890 16.0529 -163.3880 0.0000 0.0000 0.0000 -10.1359 -13.4722 -46.3124 7.2568 15.5444 49.8391 1.1712 -3.9988 -19.5203 8.0770 -16.1756 -52.8397 0.0000 0.0000 0.0000 8.1134 15.1865 4.4884 -13.7911 -19.0494 71.5654 -36.7864 29.6982 -143.9002 -0.0562 1.5301 -4.2088 -5.1737 5.4165 -0.8793 2.6034 7.4231 3.1621 5.7617 3.5945 2.7706 -3.2817 -4.4620 -7.0620 7.2697 -5.8908 22.6970 2.5183 -1.8324 8.5225 -0.0000 -0.0000 0.0000 -35.2806 14.7924 40.9102 17.5494 -27.5763 -4.3386 -0.0000 -0.0000 2.2640 39.7133 -21.8921 -17.2078 -7.1250 0.0000 -0.0000 6.6794 2.5610 -6.4186 -0.0000 -0.0000 0.0000 50.9883 6.4571 27.2240 -25.2318 36.4400 -8.4272 0.0000 0.0000 0.3557 -8.9749 -40.8997 5.9038 7.1250 -0.0000 -0.0000 37.4978 -67.6717 -21.6134
8.2587 15.5019 13.1711 -175.1910 14.5038 -164.5770 0.0000 0.0000 0.0000 -12.2617 -15.4081 -44.3215 7.1346 15.4442 49.3817 1.1757 -4.8370 -19.4626 7.8640 -16.0183 -52.0712 0.0000 0.0000 0.0000 7.2173 16.7059 1.4014 -12.4920 -18.5910 67.5401 -34.2017 26.4166 -134.6518 -0.5180 4.6130 -12.8079 -5.7887 4.6824 -0.4598 2.6208 6.4561 3.4860 6.1010 3.0869 2.9387 -3.4073 -4.5151 -6.4647 7.1696 -5.8686 22.9416 2.5234 -1.8245 8.4945 0.0000 0.0000 0.0000 -36.8517 12.7634 40.3116 18.1046 -28.2909 -4.5987 -0.0000 -0.0000 2.1364 39.4771 -22.1467 -17.2498 -7.1250 0.0000 -0.0000 6.4852 2.3322 -6.2566 0.0000 0.0000 0.0000 52.8076 3.7122 24.3015 -23.7535 34.9024 -7.5650 0.0000 0.0000 0.8904 -11.1483 -40.9485 7.3593 7.1250 -0.0000 -0.0000 35.3116 -68.3831 -20.7777
8.1947 15.5522 13.0742 -176.4180 13.4577 -165.6460 0.0000 0.0000 0.0000 -14.3616 -16.6852 -42.3356 6.9245 15.2680 48.5883 1.1512 -5.0819 -19.2306 7.8485 -16.0067 -52.0153 0.0000 0.0000 0.0000 5.9336 18.9007 -3.0671 -11.2958 -18.0768 63.7385 -34.2985 21.1271 -135.8236 -0.6429 5.1296 -14.2786 -6.2125 4.0068 -0.0317 2.5140 5.5681 3.8611 6.2126 2.6202 3.1940 -3.4782 -4.4096 -5.5476 7.0219 -5.6326 22.8365 2.5217 -1.7393 8.2725 0.0000 0.0000 0.0000 -38.6315 10.1533 39.2173 18.2790 -28.5129 -4.6817 -0.0000 -0.0000 2.2719 38.8566 -21.4063 -16.3857 -7.1250 0.0000 -0.0000 6.2621 3.3959 -5.9161 0.0000 0.0000 0.0000 55.6029 0.5044 20.2933 -23.3453 34.4642 -7.3328 0.0000 0.0000 1.3275 -15.7611 -38.5589 9.9776 7.1250 -0.0000 -0.0000 26.5797 -67.8490 -15.0073
8.1251 15.6258 12.9979 -177.4330 12.2684 -167.0230 0.0000 0.0000 0.0000 -16.4931 -17.4993 -39.6220 6.5371 14.9294 47.1010 1.0822 -5.1261 -18.6233 7.8766 -16.0277 -52.1169 0.0000 0.0000 0.0000 3.9720 20.0837 -10.0067 -10.3968 -17.6270 60.8065 -36.7980 25.3958 -145.3695 -0.0002 0.0841 -0.2311 -6.2535 3.1774 0.8489 2.4363 4.4751 4.4755 6.1222 2.0663 3.5120 -3.3448 -4.1195 -5.3977 6.3914 -5.1012 23.1117 2.3414 -1.5280 8.2861 0.0000 -0.0000 0.0000 -40.8025 7.1681 37.2774 18.3379 -28.5877 -4.7098 -0.0000 -0.0000 3.4171 40.3357 -22.5776 -18.0565 -7.1250 0.0000 -0.0000 6.9064 1.5497 -6.7669 0.0000 -0.0000 0.0000 58.5773 -2.1513 16.3516 -23.1209 34.2208 -7.2062 0.0000 0.0000 1.7290 -17.4002 -41.6560 11.7661 7.1250 -0.0000 -0.0000 29.6459 -70.9776 -18.8810
8.0562 15.7046 12.9463 -178.2690 11.1640 -168.7040 0.0000 0.0000 0.0000 -18.6078 -17.6993 -36.4648 6.0781 14.5036 45.2945 0.9895 -5.1344 -17.7843 7.8875 -16.0359 -52.1566 0.0000 0.0000 0.0000 2.3044 20.5027 -18.0758 -10.3423 -17.5979 60.6265 -38.1020 21.8098 -152.7931 -0.4148 4.1343 -11.4548 -6.1760 2.2658 2.1807 2.4415 3.2869 5.2771 6.0458 1.4820 3.7893 -3.5674 -3.7002 -4.9203 5.7466 -4.3737 22.8860 2.2277 -1.2893 8.0732 0.0000 -0.0000 0.0000 -43.2900 3.7676 34.8265 18.2855 -28.5212 -4.6848 -0.0000 -0.0000 4.9906 41.4587 -22.3036 -18.5352 -7.1250 0.0000 -0.0000 7.6315 1.5075 -7.4954 0.0000 -0.0000 0.0000 61.4988 -4.3180 12.0059 -22.9935 34.0817 -7.1346 0.0000 0.0000 4.5322 -15.3547 -42.3510 10.4805 7.1250 -0.0000 -0.0000 33.2643 -70.8446 -21.2423
7.9993 15.7666 12.9157 -179.2700 10.2759 -170.5650 0.0000 0.0000 0.0000 -20.8980 -17.4020 -33.3379 5.6409 14.0711 43.5230 0.8946 -5.1598 -16.8865 7.8781 -16.0289 -52.1226 0.0000 0.0000 0.0000 0.4588 21.1187 -26.6321 -11.1674 -18.0160 63.3240 -39.2138 18.0957 -160.9837 -0.7798 5.6379 -15.7374 -6.5617 1.3505 3.7048 2.4438 2.1066 6.0899 6.2459 0.8970 3.9645 -3.6359 -3.1235 -4.2265 4.7214 -3.3815 22.4744 1.9802 -0.9476 7.7431 0.0000 -0.0000 0.0000 -45.8694 -0.0227 33.1206 18.5084 -28.8032 -4.7917 -0.0000 -0.0000 4.9698 41.0943 -18.9830 -15.8391 -7.1250 0.0000 -0.0000 8.1115 5.6522 -7.3489 0.0000 -0.0000 0.0000 64.0833 -6.7093 9.4180 -23.0929 34.1903 -7.1904 0.0000 0.0000 4.5895 -17.5106 -39.9097 11.4432 7.1250 -0.0000 -0.0000 26.5616 -69.5549 -16.0011
7.9578 15.8103 12.9009 -180.8020 9.3836 -172.9310 0.0000 0.0000 0.0000 -23.8213 -16.6884 -29.8887 5.2232 13.6308 41.7783 0.8077 -5.2662 -16.0249 7.9157 -16.0569 -52.2586 0.0000 0.0000 0.0000 -1.8954 21.3441 -34.9523 -12.9570 -18.7666 68.9920 -39.4544 -3.2037 166.7727 -11.7121 -18.2663 65.0733 -7.7878 0.4294 5.7440 2.3139 0.9091 6.9996 6.8113 0.2881 3.9964 -3.5842 -2.3932 -3.5462 3.6338 -2.1926 21.9895 1.7018 -0.4969 7.3958 -0.0000 -0.0000 0.0000 -48.5813 -4.2231 30.8311 18.8205 -29.1950 -4.9430 -0.0000 -0.0000 4.6431 41.2288 -21.4977 -17.8039 -7.1250 0.0000 -0.0000 7.6693 2.5533 -7.3874 -0.0000 -0.0000 0.0000 66.4956 -8.9750 6.9297 -23.2027 34.3097 -7.2522 0.0000 0.0000 4.9715 -15.2825 -41.4519 10.2530 7.1250 -0.0000 -0.0000 31.6871 -70.1075 -19.6677
7.9328 15.8337 12.9091 -182.5320 8.1530 -175.3240 0.0000 0.0000 0.0000 -26.8084 -15.9835 -26.7614 4.9147 13.2871 40.4530 0.7201 -5.6989 -15.1204 7.8498 -16.0076 -52.0198 0.0000 0.0000 0.0000 -4.1196 21.4049 -42.5879 -15.8458 -19.5811 77.7719 -40.2009 -9.0847 -171.9237 -11.8015 -18.3055 65.3584 -9.4388 -0.4660 8.1826 2.0591 -0.3198 7.7958 7.5337 -0.3316 3.7815 -3.4249 -1.6474 -3.1763 2.7953 -1.0468 21.6473 1.4793 -0.0231 7.1696 0.0000 0.0000 0.0000 -51.2608 -8.8490 28.5562 19.6230 -30.1855 -5.3405 -0.0000 -0.0000 4.4301 40.5708 -20.9499 -17.0216 -7.1250 0.0000 -0.0000 7.3900 3.4219 -6.9952 0.0000 0.0000 0.0000 69.1832 -11.3353 5.0002 -23.4428 34.5695 -7.3880 0.0000 0.0000 4.2909 -15.2193 -41.7628 10.2707 7.1250 -0.0000 -0.0000 32.3164 -70.3351 -20.2437
7.9092 15.8486 12.8915 -183.9210 7.0283 -177.6070 0.0000 0.0000 0.0000 -29.4915 -15.2259 -23.5055 4.6111 12.9320 39.1145 0.6526 -6.0853 -14.4111 7.6379 -15.8464 -51.2478 0.0000 0.0000 0.0000 -5.8464 20.9699 -48.3209 -19.8519 -19.9995 89.5669 176.3554 52.3756 74.4356 -9.8739 -17.3384 59.0662 -10.7709 -1.3003 10.3512 1.7254 -1.4619 8.5747 8.0312 -0.8948 3.7546 -3.2602 -0.8969 -2.8262 2.2061 0.0512 21.3047 1.3295 0.4546 6.9611 0.0000 -0.0000 0.0000 -53.9622 -13.6115 26.4664 20.7063 -31.4839 -5.8958 -0.0000 -0.0000 5.1583 44.8146 -23.7402 -21.8011 -7.1250 0.0000 -0.0000 9.2533 -1.4529 -9.6099 0.0000 -0.0000 0.0000 72.0392 -13.4362 2.5191 -23.3411 34.4597 -7.3304 0.0000 0.0000 4.0569 -14.8041 -41.8676 10.0034 7.1250 -0.0000 -0.0000 32.9684 -70.2807 -20.6423
